<svg width="24" height="24" fill="none" xmlns="http://www.w3.org/2000/svg"><path d="M12.87.704c.83 0 1.658.01 2.487.032l.22.009c.255.01.506.021.809.036 1.209.06 2.033.253 2.756.536.749.29 1.38.683 2.01 1.316a5.575 5.575 0 0 1 1.303 2.016c.279.724.468 1.55.521 2.76.013.302.024.554.032.808l.006.22c.018.83.024 1.658.02 2.486l-.002.848-.004 1.488c0 .829-.01 1.658-.033 2.487l-.007.22c-.01.254-.022.505-.037.809-.06 1.208-.255 2.033-.537 2.755a5.549 5.549 0 0 1-1.315 2.01 5.583 5.583 0 0 1-2.017 1.304c-.724.279-1.55.467-2.758.52-.303.014-.555.024-.809.033l-.22.006c-.83.018-1.658.024-2.487.02l-.848-.002-1.487-.004c-.829 0-1.658-.01-2.486-.033l-.22-.008c-.27-.01-.54-.022-.81-.036-1.208-.06-2.032-.255-2.756-.537a5.554 5.554 0 0 1-2.008-1.315A5.572 5.572 0 0 1 .887 19.47c-.278-.724-.467-1.55-.52-2.758-.012-.27-.023-.54-.032-.81l-.005-.22a89.798 89.798 0 0 1-.022-2.486l.006-2.336c0-.829.01-1.657.032-2.486l.009-.22c.01-.254.022-.507.036-.809.06-1.21.253-2.032.536-2.756a5.544 5.544 0 0 1 1.319-2.008A5.563 5.563 0 0 1 4.26 1.276C4.986.997 5.81.809 7.02.756l.809-.033.22-.005a89.805 89.805 0 0 1 2.486-.021l2.335.007Zm-1.183 5.677a5.68 5.68 0 1 0-.031 11.359 5.68 5.68 0 0 0 .03-11.359Zm-.006 2.272a3.408 3.408 0 1 1-.018 6.815 3.408 3.408 0 0 1 .019-6.816l-.001.001Zm5.975-3.96a1.42 1.42 0 0 0-.008 2.838 1.42 1.42 0 1 0 .008-2.84v.002Z" fill="url(#a)"/><defs><linearGradient id="a" x1="23.063" y1=".731" x2=".28" y2="23.39" gradientUnits="userSpaceOnUse"><stop stop-color="#FFD60A"/><stop offset="1" stop-color="#FFD60A"/></linearGradient></defs></svg>