<svg width="86" height="86" viewBox="0 0 86 86" fill="none" xmlns="http://www.w3.org/2000/svg">
<path d="M22.7578 36.5457C22.7578 40.1281 23.4662 43.6755 24.8426 46.9852C26.219 50.295 28.2363 53.3023 30.7795 55.8355C33.3227 58.3686 36.3419 60.3781 39.6648 61.749C42.9876 63.1199 46.549 63.8256 50.1456 63.8256C53.7423 63.8256 57.3037 63.1199 60.6265 61.749C63.9493 60.3781 66.9686 58.3686 69.5117 55.8355C72.0549 53.3023 74.0723 50.295 75.4487 46.9852C76.825 43.6755 77.5335 40.1281 77.5335 36.5457C77.5335 32.9632 76.825 29.4159 75.4487 26.1061C74.0723 22.7964 72.0549 19.7891 69.5117 17.2559C66.9686 14.7227 63.9493 12.7133 60.6265 11.3424C57.3037 9.97142 53.7423 9.26581 50.1456 9.26581C46.549 9.26581 42.9876 9.97142 39.6648 11.3424C36.3419 12.7133 33.3227 14.7227 30.7795 17.2559C28.2363 19.7891 26.219 22.7964 24.8426 26.1061C23.4662 29.4159 22.7578 32.9632 22.7578 36.5457Z" fill="#EADAC5"/>
<path d="M63.8185 77.4178L55.5772 80.7983C54.5117 81.2353 53.3598 81.4206 52.2111 81.3396C51.0623 81.2586 49.9478 80.9136 48.9541 80.3315L46.9546 79.1596C31.9939 70.3921 16.4848 54.9471 7.68421 40.0438L6.50743 38.0511C5.92361 37.0635 5.57752 35.9536 5.4965 34.8092C5.41548 33.6648 5.60176 32.5173 6.04061 31.4573L9.43479 23.247L14.6505 20.7855L25.085 36.3744L21.4545 41.4618L19.0046 44.892C21.3786 49.0593 25.0577 53.6254 29.1881 57.7403C33.3176 61.8561 37.9041 65.5206 42.0889 67.8858L45.5327 65.4448L50.6405 61.8298L66.2897 72.2195L63.8185 77.4178Z" fill="#47A7DD"/>
<path d="M67.0153 71.1361L51.366 60.7445C51.1454 60.5983 50.8857 60.5222 50.621 60.5262C50.3563 60.5301 50.0991 60.614 49.8829 60.7668L42.0179 66.3366C38.2445 64.092 34.047 60.7396 30.113 56.8183C26.1752 52.896 22.8102 48.7161 20.5597 44.962L26.1519 37.1282C26.3052 36.9134 26.3895 36.6569 26.3935 36.393C26.3974 36.1291 26.321 35.8703 26.1742 35.6509L15.7388 20.063C15.5639 19.8028 15.3015 19.6139 14.9992 19.5305C14.697 19.4472 14.3749 19.475 14.0913 19.6088L8.87557 22.0703C8.58187 22.2094 8.3504 22.4525 8.22689 22.7511L4.83271 30.9613C4.3211 32.2081 4.10442 33.5563 4.19957 34.9006C4.29471 36.245 4.69911 37.5492 5.38122 38.7115L6.558 40.7042C6.92368 41.3237 7.72505 41.5309 8.34748 41.1672C8.96991 40.8025 9.17804 40.004 8.81139 39.3845L7.63461 37.3917C7.15568 36.5762 6.87173 35.661 6.80493 34.7176C6.73812 33.7742 6.89026 32.8282 7.24948 31.9533L9.69932 26.0276L19.843 41.4706L17.9397 44.1373C17.7954 44.3392 17.7119 44.5782 17.6992 44.8261C17.6864 45.0739 17.7449 45.3202 17.8677 45.5358C20.2203 49.6653 23.9121 54.3267 28.2632 58.6603C32.6095 62.992 37.2904 66.6702 41.4422 69.0179C41.6588 69.1403 41.9057 69.1985 42.1542 69.186C42.4026 69.1734 42.6424 69.0905 42.8456 68.9469L45.522 67.0514L52.0838 71.3267C52.2272 71.421 52.3878 71.486 52.5564 71.5181C52.725 71.5502 52.8983 71.5487 53.0663 71.5137C53.2343 71.4788 53.3938 71.411 53.5356 71.3144C53.6774 71.2177 53.7988 71.094 53.8927 70.9504C53.9866 70.8072 54.0513 70.647 54.0831 70.4788C54.1149 70.3106 54.1131 70.1378 54.078 69.9702C54.0428 69.8027 53.975 69.6438 53.8782 69.5026C53.7815 69.3613 53.6579 69.2406 53.5144 69.1473L47.8104 65.4302L50.6629 63.4102L64.6238 72.6795L63.2778 75.5097L56.6732 71.2052C56.0683 70.8123 55.2582 70.9815 54.8633 71.5825C54.4685 72.1835 54.6377 72.9908 55.2416 73.3856L61.0253 77.1552L55.0782 79.5943C54.1992 79.9523 53.2498 80.1038 52.303 80.037C51.3563 79.9702 50.4375 79.687 49.6174 79.2092L47.6169 78.0373C34.2055 70.1791 20.265 56.8514 11.2379 43.2533C11.0457 42.965 10.7473 42.7646 10.4078 42.6957C10.0683 42.6268 9.71534 42.6951 9.42604 42.8857C9.283 42.9796 9.15993 43.1008 9.06392 43.2425C8.96792 43.3842 8.90086 43.5434 8.8666 43.711C8.83235 43.8787 8.83158 44.0515 8.86433 44.2194C8.89708 44.3874 8.96271 44.5472 9.05744 44.6897C18.2908 58.5981 32.558 72.2361 46.2913 80.2829L48.2918 81.4548C49.6436 82.2435 51.181 82.6581 52.7461 82.6559C53.8876 82.6569 55.0184 82.4352 56.0751 82.0033L64.3164 78.6228C64.617 78.4992 64.8611 78.2688 65.0001 77.976L67.4714 72.7778C67.6057 72.4951 67.6334 72.1734 67.5497 71.8718C67.4659 71.5703 67.2761 71.309 67.0153 71.1361ZM11.3507 23.7839L14.1896 22.4437L23.4978 36.3502L21.47 39.191L11.3507 23.7839ZM24.0969 27.997C24.4202 28.1209 24.7795 28.1116 25.096 27.971C25.4125 27.8305 25.6604 27.5702 25.7852 27.2471C27.7128 22.2405 31.1002 18.0031 35.5807 14.9921C35.7229 14.897 35.8449 14.7746 35.9396 14.6322C36.0344 14.4897 36.1001 14.3299 36.1329 14.162C36.1657 13.9941 36.165 13.8213 36.1308 13.6537C36.0966 13.486 36.0296 13.3268 35.9337 13.1851C35.7391 12.8986 35.4389 12.7007 35.0988 12.6349C34.7587 12.5691 34.4064 12.6407 34.1189 12.834C29.1911 16.1446 25.4652 20.806 23.3441 26.3145C23.2828 26.4743 23.2536 26.6448 23.2583 26.8159C23.2629 26.9871 23.3013 27.1557 23.3712 27.312C23.4412 27.4683 23.5413 27.6092 23.6658 27.7268C23.7903 27.8443 23.9368 27.9362 24.0969 27.997ZM50.1465 7.96353C46.0725 7.96353 42.1346 8.797 38.4429 10.4416C38.2865 10.5111 38.1453 10.6108 38.0275 10.7349C37.9097 10.859 37.8175 11.0052 37.7563 11.165C37.695 11.3248 37.6659 11.4951 37.6706 11.6662C37.6752 11.8373 37.7136 12.0058 37.7835 12.162C37.926 12.4777 38.1877 12.724 38.5114 12.8472C38.8351 12.9704 39.1944 12.9604 39.5107 12.8194C42.8575 11.3272 46.4821 10.5603 50.1465 10.569C64.5265 10.569 76.2262 22.223 76.2262 36.5466C76.2364 41.8396 74.6152 47.0072 71.5833 51.3458C68.6324 55.5905 64.4847 58.8606 59.6686 60.7396C59.3843 60.8489 59.1474 61.0545 58.9991 61.3205C58.8509 61.5866 58.8008 61.8963 58.8575 62.1956C58.9142 62.4948 59.0742 62.7647 59.3095 62.958C59.5449 63.1514 59.8406 63.256 60.1452 63.2536C60.3047 63.2536 60.4661 63.2245 60.6227 63.1632C65.9207 61.0969 70.4837 57.5004 73.7307 52.8319C77.0671 48.0576 78.8513 42.3712 78.8404 36.5466C78.8404 20.7856 65.9678 7.96353 50.1465 7.96353Z" fill="black"/>
<path d="M48.8693 31.715C48.8693 28.3325 46.1072 25.5812 42.7121 25.5812C39.3169 25.5812 36.5549 28.3325 36.5549 31.715C36.5549 32.4347 37.1404 33.0172 37.862 33.0172C38.5846 33.0172 39.1691 32.4337 39.1691 31.715C39.1719 30.7777 39.5465 29.8799 40.2105 29.2184C40.8745 28.5569 41.7738 28.1858 42.7111 28.1866C44.6659 28.1866 46.2551 29.769 46.2551 31.715C46.2551 34.4829 45.1736 37.0844 43.2081 39.0412L36.9371 45.2869C36.7537 45.4689 36.6287 45.7014 36.578 45.9547C36.5273 46.208 36.5532 46.4707 36.6525 46.7093C36.7517 46.9478 36.9198 47.1514 37.1352 47.294C37.3506 47.4367 37.6037 47.5119 37.862 47.5101H47.5631C48.2848 47.5101 48.8702 46.9276 48.8702 46.2079C48.8702 45.4892 48.2848 44.9056 47.5631 44.9056H41.0189L45.0579 40.8822C46.2692 39.6832 47.23 38.2552 47.8843 36.6814C48.5387 35.1076 48.8735 33.4194 48.8693 31.715ZM59.2784 25.6288C59.0028 25.5525 58.7098 25.5687 58.4442 25.6748C58.1786 25.7808 57.9551 25.9711 57.8079 26.2162L50.0237 39.2017C49.9051 39.3995 49.8412 39.6253 49.8386 39.856C49.8359 40.0867 49.8947 40.3139 50.0088 40.5144C50.1229 40.7149 50.2882 40.8815 50.4879 40.997C50.6876 41.1126 50.9143 41.173 51.145 41.172H57.6222V46.2088C57.6222 46.9285 58.2076 47.5111 58.9302 47.5111C59.6528 47.5111 60.2383 46.9275 60.2383 46.2088V41.172H62.4285C63.1501 41.172 63.7356 40.5885 63.7356 39.8698C63.7356 39.1511 63.1501 38.5676 62.4285 38.5676H60.2383V26.8844C60.238 26.5988 60.1438 26.3213 59.9704 26.0945C59.797 25.8677 59.5539 25.704 59.2784 25.6288ZM57.6231 31.6051V38.5676H53.449L57.6231 31.6051Z" fill="black"/>
</svg>
