<svg width="24" height="24" fill="none" xmlns="http://www.w3.org/2000/svg"><path fill-rule="evenodd" clip-rule="evenodd" d="M18.414 16.854c-.282.79-1.394 1.44-2.28 1.63-.606.126-1.396.226-4.056-.885-2.987-1.247-7.128-5.672-7.12-8.61.004-1.494.871-3.233 2.379-3.229.725.002.885.017 1.122.59.277.675.954 2.34 1.035 2.51.333.7-.344 1.107-.836 1.714-.157.183-.335.38-.137.722.196.334.874 1.446 1.873 2.34 1.29 1.156 2.337 1.527 2.712 1.684.28.117.613.09.818-.127.259-.278.58-.74.909-1.197.231-.326.525-.366.831-.25.208.073 2.84 1.305 2.951 1.501.082.143.08.817-.201 1.607ZM11.716.473h-.006C5.322.455.112 5.638.095 12.028a11.498 11.498 0 0 0 2.187 6.797L.827 23.127l4.456-1.41a11.497 11.497 0 0 0 6.37 1.93c6.387.018 11.598-5.165 11.616-11.555C23.287 5.702 18.104.49 11.716.472Z" fill="url(#a)"/><defs><linearGradient id="a" x1="23.301" y1=".505" x2=".063" y2="23.616" gradientUnits="userSpaceOnUse"><stop stop-color="#FFD60A"/><stop offset="1" stop-color="#FFC300"/></linearGradient></defs></svg>